<mxfile host="drawio.corp.amazon.com" modified="2025-01-30T12:05:41.075Z" agent="Mozilla/5.0 (Macintosh; Intel Mac OS X 10_15_7) AppleWebKit/537.36 (KHTML, like Gecko) Chrome/132.0.0.0 Safari/537.36" etag="19yj3elndvU4i5KWQkKR" version="21.7.4" type="device" pages="2">
  <diagram id="NYqp1mlNTsguFhueN-kR" name="Architecture">
    <mxGraphModel dx="2259" dy="1987" grid="1" gridSize="10" guides="1" tooltips="1" connect="1" arrows="1" fold="1" page="1" pageScale="1" pageWidth="850" pageHeight="1100" math="0" shadow="0">
      <root>
        <mxCell id="0" />
        <mxCell id="1" parent="0" />
        <mxCell id="DTCSdnXKP_dvlhaO7enx-11" value="" style="rounded=0;whiteSpace=wrap;html=1;" parent="1" vertex="1">
          <mxGeometry x="700" y="-560" width="120" height="310" as="geometry" />
        </mxCell>
        <mxCell id="2o2Vsj7CwYwymRC7PFWn-2" value="&lt;div align=&quot;right&quot;&gt;&lt;b&gt;Data Governance&amp;nbsp;&lt;/b&gt;&lt;/div&gt;&lt;div align=&quot;center&quot;&gt;&lt;b&gt;Layer&lt;/b&gt;&lt;/div&gt;" style="text;html=1;strokeColor=none;fillColor=none;align=right;verticalAlign=middle;whiteSpace=wrap;rounded=0;" parent="1" vertex="1">
          <mxGeometry x="698" y="-541" width="120" height="20" as="geometry" />
        </mxCell>
        <mxCell id="6uM_akt3Tpvj0SvyeWcX-1" value="" style="rounded=0;whiteSpace=wrap;html=1;" parent="1" vertex="1">
          <mxGeometry x="119" y="-555" width="561" height="45" as="geometry" />
        </mxCell>
        <mxCell id="6uM_akt3Tpvj0SvyeWcX-2" value="&lt;b&gt;Consumption Layer&lt;br&gt;&lt;/b&gt;" style="text;html=1;strokeColor=none;fillColor=none;align=right;verticalAlign=middle;whiteSpace=wrap;rounded=0;" parent="1" vertex="1">
          <mxGeometry x="439" y="-545" width="235" height="20" as="geometry" />
        </mxCell>
        <mxCell id="106kdZHe_8hl8JJFx15q-2" value="AWS Account: Domain-A Data Lake" style="points=[[0,0],[0.25,0],[0.5,0],[0.75,0],[1,0],[1,0.25],[1,0.5],[1,0.75],[1,1],[0.75,1],[0.5,1],[0.25,1],[0,1],[0,0.75],[0,0.5],[0,0.25]];outlineConnect=0;gradientColor=none;html=1;whiteSpace=wrap;fontSize=12;fontStyle=0;container=1;pointerEvents=0;collapsible=0;recursiveResize=0;shape=mxgraph.aws4.group;grIcon=mxgraph.aws4.group_account;strokeColor=#CD2264;fillColor=none;verticalAlign=top;align=left;spacingLeft=30;fontColor=#CD2264;dashed=0;" vertex="1" parent="1">
          <mxGeometry x="-200" y="-600" width="1070" height="400" as="geometry" />
        </mxCell>
        <mxCell id="DTCSdnXKP_dvlhaO7enx-2" value="" style="rounded=0;whiteSpace=wrap;html=1;" parent="106kdZHe_8hl8JJFx15q-2" vertex="1">
          <mxGeometry x="319" y="100" width="560" height="40" as="geometry" />
        </mxCell>
        <mxCell id="DTCSdnXKP_dvlhaO7enx-12" value="&lt;div align=&quot;right&quot;&gt;&lt;b&gt;Data Catalog Layer&lt;/b&gt;&lt;/div&gt;" style="text;html=1;strokeColor=none;fillColor=none;align=right;verticalAlign=middle;whiteSpace=wrap;rounded=0;" parent="106kdZHe_8hl8JJFx15q-2" vertex="1">
          <mxGeometry x="728" y="110" width="142" height="20" as="geometry" />
        </mxCell>
        <mxCell id="RtC3QGiskVssD8yk2r8x-5" value="" style="rounded=0;whiteSpace=wrap;html=1;" parent="106kdZHe_8hl8JJFx15q-2" vertex="1">
          <mxGeometry x="319" y="150" width="560" height="40" as="geometry" />
        </mxCell>
        <mxCell id="iV9w8CL2n9Fb7NKI-OpV-1" value="" style="rounded=0;whiteSpace=wrap;html=1;" parent="106kdZHe_8hl8JJFx15q-2" vertex="1">
          <mxGeometry x="318" y="200" width="560" height="40" as="geometry" />
        </mxCell>
        <mxCell id="nQ7t-EPrq67xgIIIJy2z-1" value="" style="rounded=0;whiteSpace=wrap;html=1;" parent="106kdZHe_8hl8JJFx15q-2" vertex="1">
          <mxGeometry x="320" y="250" width="560" height="40" as="geometry" />
        </mxCell>
        <mxCell id="FsiT6NNR3ZakIjd2X3hu-4" value="&lt;div align=&quot;right&quot;&gt;&lt;b&gt;Utility Layer&lt;/b&gt;&lt;/div&gt;" style="text;html=1;strokeColor=none;fillColor=none;align=right;verticalAlign=middle;whiteSpace=wrap;rounded=0;" parent="106kdZHe_8hl8JJFx15q-2" vertex="1">
          <mxGeometry x="768" y="261" width="100" height="20" as="geometry" />
        </mxCell>
        <mxCell id="FsiT6NNR3ZakIjd2X3hu-5" value="&lt;div align=&quot;right&quot;&gt;&lt;b&gt;Data Lake Storage Layer&lt;/b&gt;&lt;/div&gt;" style="text;html=1;strokeColor=none;fillColor=none;align=right;verticalAlign=middle;whiteSpace=wrap;rounded=0;" parent="106kdZHe_8hl8JJFx15q-2" vertex="1">
          <mxGeometry x="724" y="212" width="142" height="20" as="geometry" />
        </mxCell>
        <mxCell id="RtC3QGiskVssD8yk2r8x-2" value="&lt;div align=&quot;right&quot;&gt;&lt;b&gt;Data Processing&amp;nbsp;&lt;/b&gt;&lt;/div&gt;&lt;div align=&quot;center&quot;&gt;&lt;b&gt;Layer&lt;/b&gt;&lt;/div&gt;" style="text;html=1;strokeColor=none;fillColor=none;align=right;verticalAlign=middle;whiteSpace=wrap;rounded=0;" parent="106kdZHe_8hl8JJFx15q-2" vertex="1">
          <mxGeometry x="747" y="161" width="120" height="20" as="geometry" />
        </mxCell>
        <mxCell id="FsiT6NNR3ZakIjd2X3hu-7" value="" style="rounded=0;whiteSpace=wrap;html=1;" parent="106kdZHe_8hl8JJFx15q-2" vertex="1">
          <mxGeometry x="320" y="298" width="560" height="50" as="geometry" />
        </mxCell>
        <mxCell id="FsiT6NNR3ZakIjd2X3hu-8" value="&lt;b&gt;Security Layer&lt;br&gt;&lt;/b&gt;" style="text;html=1;strokeColor=none;fillColor=none;align=center;verticalAlign=middle;whiteSpace=wrap;rounded=0;" parent="106kdZHe_8hl8JJFx15q-2" vertex="1">
          <mxGeometry x="767" y="318" width="100" height="30" as="geometry" />
        </mxCell>
        <mxCell id="RtC3QGiskVssD8yk2r8x-1" value="" style="rounded=0;whiteSpace=wrap;html=1;" parent="106kdZHe_8hl8JJFx15q-2" vertex="1">
          <mxGeometry x="50" y="100" width="250" height="90" as="geometry" />
        </mxCell>
        <mxCell id="RtC3QGiskVssD8yk2r8x-7" value="&lt;b&gt;Orchestration Layer&lt;br&gt;&lt;/b&gt;" style="text;html=1;strokeColor=none;fillColor=none;align=center;verticalAlign=middle;whiteSpace=wrap;rounded=0;" parent="106kdZHe_8hl8JJFx15q-2" vertex="1">
          <mxGeometry x="70" y="120" width="210" height="30" as="geometry" />
        </mxCell>
        <mxCell id="iXhcDOvlP2kmrlU6j1Am-37" value="SDLF Deployment" style="text;html=1;align=center;verticalAlign=middle;resizable=0;points=[];autosize=1;strokeColor=none;fillColor=none;fontStyle=1;fontSize=20;" vertex="1" parent="106kdZHe_8hl8JJFx15q-2">
          <mxGeometry y="360" width="200" height="40" as="geometry" />
        </mxCell>
        <mxCell id="iXhcDOvlP2kmrlU6j1Am-1" value="" style="rounded=0;whiteSpace=wrap;html=1;" vertex="1" parent="1">
          <mxGeometry x="700" y="-120" width="120" height="310" as="geometry" />
        </mxCell>
        <mxCell id="iXhcDOvlP2kmrlU6j1Am-2" value="&lt;div align=&quot;right&quot;&gt;&lt;b&gt;Data Governance&amp;nbsp;&lt;/b&gt;&lt;/div&gt;&lt;div align=&quot;center&quot;&gt;&lt;b&gt;Layer&lt;/b&gt;&lt;/div&gt;" style="text;html=1;strokeColor=none;fillColor=none;align=right;verticalAlign=middle;whiteSpace=wrap;rounded=0;" vertex="1" parent="1">
          <mxGeometry x="698" y="-101" width="120" height="20" as="geometry" />
        </mxCell>
        <mxCell id="iXhcDOvlP2kmrlU6j1Am-3" value="" style="rounded=0;whiteSpace=wrap;html=1;" vertex="1" parent="1">
          <mxGeometry x="119" y="-115" width="561" height="45" as="geometry" />
        </mxCell>
        <mxCell id="iXhcDOvlP2kmrlU6j1Am-4" value="&lt;b&gt;Consumption Layer&lt;br&gt;&lt;/b&gt;" style="text;html=1;strokeColor=none;fillColor=none;align=right;verticalAlign=middle;whiteSpace=wrap;rounded=0;" vertex="1" parent="1">
          <mxGeometry x="439" y="-105" width="235" height="20" as="geometry" />
        </mxCell>
        <mxCell id="iXhcDOvlP2kmrlU6j1Am-5" value="AWS Account: Domain-B Data Lake" style="points=[[0,0],[0.25,0],[0.5,0],[0.75,0],[1,0],[1,0.25],[1,0.5],[1,0.75],[1,1],[0.75,1],[0.5,1],[0.25,1],[0,1],[0,0.75],[0,0.5],[0,0.25]];outlineConnect=0;gradientColor=none;html=1;whiteSpace=wrap;fontSize=12;fontStyle=0;container=1;pointerEvents=0;collapsible=0;recursiveResize=0;shape=mxgraph.aws4.group;grIcon=mxgraph.aws4.group_account;strokeColor=#CD2264;fillColor=none;verticalAlign=top;align=left;spacingLeft=30;fontColor=#CD2264;dashed=0;" vertex="1" parent="1">
          <mxGeometry x="-200" y="-160" width="1070" height="400" as="geometry" />
        </mxCell>
        <mxCell id="iXhcDOvlP2kmrlU6j1Am-6" value="" style="rounded=0;whiteSpace=wrap;html=1;" vertex="1" parent="iXhcDOvlP2kmrlU6j1Am-5">
          <mxGeometry x="319" y="100" width="560" height="40" as="geometry" />
        </mxCell>
        <mxCell id="iXhcDOvlP2kmrlU6j1Am-7" value="&lt;div align=&quot;right&quot;&gt;&lt;b&gt;Data Catalog Layer&lt;/b&gt;&lt;/div&gt;" style="text;html=1;strokeColor=none;fillColor=none;align=right;verticalAlign=middle;whiteSpace=wrap;rounded=0;" vertex="1" parent="iXhcDOvlP2kmrlU6j1Am-5">
          <mxGeometry x="728" y="110" width="142" height="20" as="geometry" />
        </mxCell>
        <mxCell id="iXhcDOvlP2kmrlU6j1Am-8" value="" style="rounded=0;whiteSpace=wrap;html=1;" vertex="1" parent="iXhcDOvlP2kmrlU6j1Am-5">
          <mxGeometry x="319" y="150" width="560" height="40" as="geometry" />
        </mxCell>
        <mxCell id="iXhcDOvlP2kmrlU6j1Am-9" value="" style="rounded=0;whiteSpace=wrap;html=1;" vertex="1" parent="iXhcDOvlP2kmrlU6j1Am-5">
          <mxGeometry x="318" y="200" width="560" height="40" as="geometry" />
        </mxCell>
        <mxCell id="iXhcDOvlP2kmrlU6j1Am-10" value="" style="rounded=0;whiteSpace=wrap;html=1;" vertex="1" parent="iXhcDOvlP2kmrlU6j1Am-5">
          <mxGeometry x="320" y="250" width="560" height="40" as="geometry" />
        </mxCell>
        <mxCell id="iXhcDOvlP2kmrlU6j1Am-11" value="&lt;div align=&quot;right&quot;&gt;&lt;b&gt;Utility Layer&lt;/b&gt;&lt;/div&gt;" style="text;html=1;strokeColor=none;fillColor=none;align=right;verticalAlign=middle;whiteSpace=wrap;rounded=0;" vertex="1" parent="iXhcDOvlP2kmrlU6j1Am-5">
          <mxGeometry x="768" y="261" width="100" height="20" as="geometry" />
        </mxCell>
        <mxCell id="iXhcDOvlP2kmrlU6j1Am-12" value="&lt;div align=&quot;right&quot;&gt;&lt;b&gt;Data Lake Storage Layer&lt;/b&gt;&lt;/div&gt;" style="text;html=1;strokeColor=none;fillColor=none;align=right;verticalAlign=middle;whiteSpace=wrap;rounded=0;" vertex="1" parent="iXhcDOvlP2kmrlU6j1Am-5">
          <mxGeometry x="724" y="212" width="142" height="20" as="geometry" />
        </mxCell>
        <mxCell id="iXhcDOvlP2kmrlU6j1Am-13" value="&lt;div align=&quot;right&quot;&gt;&lt;b&gt;Data Processing&amp;nbsp;&lt;/b&gt;&lt;/div&gt;&lt;div align=&quot;center&quot;&gt;&lt;b&gt;Layer&lt;/b&gt;&lt;/div&gt;" style="text;html=1;strokeColor=none;fillColor=none;align=right;verticalAlign=middle;whiteSpace=wrap;rounded=0;" vertex="1" parent="iXhcDOvlP2kmrlU6j1Am-5">
          <mxGeometry x="747" y="161" width="120" height="20" as="geometry" />
        </mxCell>
        <mxCell id="iXhcDOvlP2kmrlU6j1Am-14" value="" style="rounded=0;whiteSpace=wrap;html=1;" vertex="1" parent="iXhcDOvlP2kmrlU6j1Am-5">
          <mxGeometry x="320" y="298" width="560" height="50" as="geometry" />
        </mxCell>
        <mxCell id="iXhcDOvlP2kmrlU6j1Am-15" value="&lt;b&gt;Security Layer&lt;br&gt;&lt;/b&gt;" style="text;html=1;strokeColor=none;fillColor=none;align=center;verticalAlign=middle;whiteSpace=wrap;rounded=0;" vertex="1" parent="iXhcDOvlP2kmrlU6j1Am-5">
          <mxGeometry x="767" y="318" width="100" height="30" as="geometry" />
        </mxCell>
        <mxCell id="iXhcDOvlP2kmrlU6j1Am-16" value="" style="rounded=0;whiteSpace=wrap;html=1;" vertex="1" parent="iXhcDOvlP2kmrlU6j1Am-5">
          <mxGeometry x="50" y="100" width="250" height="90" as="geometry" />
        </mxCell>
        <mxCell id="iXhcDOvlP2kmrlU6j1Am-17" value="&lt;b&gt;Orchestration Layer&lt;br&gt;&lt;/b&gt;" style="text;html=1;strokeColor=none;fillColor=none;align=center;verticalAlign=middle;whiteSpace=wrap;rounded=0;" vertex="1" parent="iXhcDOvlP2kmrlU6j1Am-5">
          <mxGeometry x="70" y="120" width="210" height="30" as="geometry" />
        </mxCell>
        <mxCell id="iXhcDOvlP2kmrlU6j1Am-38" value="SDLF Deployment" style="text;html=1;align=center;verticalAlign=middle;resizable=0;points=[];autosize=1;strokeColor=none;fillColor=none;fontStyle=1;fontSize=20;" vertex="1" parent="iXhcDOvlP2kmrlU6j1Am-5">
          <mxGeometry y="360" width="200" height="40" as="geometry" />
        </mxCell>
        <mxCell id="iXhcDOvlP2kmrlU6j1Am-18" value="AWS Account: Federated Governance" style="points=[[0,0],[0.25,0],[0.5,0],[0.75,0],[1,0],[1,0.25],[1,0.5],[1,0.75],[1,1],[0.75,1],[0.5,1],[0.25,1],[0,1],[0,0.75],[0,0.5],[0,0.25]];outlineConnect=0;gradientColor=none;html=1;whiteSpace=wrap;fontSize=12;fontStyle=0;container=1;pointerEvents=0;collapsible=0;recursiveResize=0;shape=mxgraph.aws4.group;grIcon=mxgraph.aws4.group_account;strokeColor=#CD2264;fillColor=none;verticalAlign=top;align=left;spacingLeft=30;fontColor=#CD2264;dashed=0;" vertex="1" parent="1">
          <mxGeometry x="920" y="-600" width="340" height="840" as="geometry" />
        </mxCell>
        <mxCell id="iXhcDOvlP2kmrlU6j1Am-32" value="" style="rounded=0;whiteSpace=wrap;html=1;" vertex="1" parent="iXhcDOvlP2kmrlU6j1Am-18">
          <mxGeometry x="80" y="50" width="180" height="730" as="geometry" />
        </mxCell>
        <mxCell id="iXhcDOvlP2kmrlU6j1Am-33" value="&lt;div&gt;&lt;b&gt;Federated Data Governance&amp;nbsp;&lt;/b&gt;&lt;/div&gt;&lt;div&gt;&lt;/div&gt;" style="text;html=1;strokeColor=none;fillColor=none;align=center;verticalAlign=middle;whiteSpace=wrap;rounded=0;" vertex="1" parent="iXhcDOvlP2kmrlU6j1Am-18">
          <mxGeometry x="109" y="69" width="120" height="20" as="geometry" />
        </mxCell>
        <mxCell id="iXhcDOvlP2kmrlU6j1Am-34" value="Amazon DataZone" style="sketch=0;points=[[0,0,0],[0.25,0,0],[0.5,0,0],[0.75,0,0],[1,0,0],[0,1,0],[0.25,1,0],[0.5,1,0],[0.75,1,0],[1,1,0],[0,0.25,0],[0,0.5,0],[0,0.75,0],[1,0.25,0],[1,0.5,0],[1,0.75,0]];outlineConnect=0;fontColor=#232F3E;fillColor=#8C4FFF;strokeColor=#ffffff;dashed=0;verticalLabelPosition=bottom;verticalAlign=top;align=center;html=1;fontSize=12;fontStyle=0;aspect=fixed;shape=mxgraph.aws4.resourceIcon;resIcon=mxgraph.aws4.datazone;" vertex="1" parent="iXhcDOvlP2kmrlU6j1Am-18">
          <mxGeometry x="131" y="210" width="78" height="78" as="geometry" />
        </mxCell>
        <mxCell id="iXhcDOvlP2kmrlU6j1Am-35" value="Amazon DataZone&lt;br&gt;Business Catalog" style="sketch=0;outlineConnect=0;fontColor=#232F3E;gradientColor=none;fillColor=#8C4FFF;strokeColor=none;dashed=0;verticalLabelPosition=bottom;verticalAlign=top;align=center;html=1;fontSize=12;fontStyle=0;aspect=fixed;pointerEvents=1;shape=mxgraph.aws4.datazone_business_data_catalog;" vertex="1" parent="iXhcDOvlP2kmrlU6j1Am-18">
          <mxGeometry x="130" y="410" width="71" height="78" as="geometry" />
        </mxCell>
      </root>
    </mxGraphModel>
  </diagram>
  <diagram name="Copy of Architecture" id="_Om82ElseeU4r6jJUxgQ">
    <mxGraphModel dx="1907" dy="1765" grid="1" gridSize="10" guides="1" tooltips="1" connect="1" arrows="1" fold="1" page="1" pageScale="1" pageWidth="850" pageHeight="1100" math="0" shadow="0">
      <root>
        <mxCell id="bR5a_vynmV3dKwn0sRz3-0" />
        <mxCell id="bR5a_vynmV3dKwn0sRz3-1" parent="bR5a_vynmV3dKwn0sRz3-0" />
        <mxCell id="bR5a_vynmV3dKwn0sRz3-2" value="" style="rounded=0;whiteSpace=wrap;html=1;" vertex="1" parent="bR5a_vynmV3dKwn0sRz3-1">
          <mxGeometry x="120" y="-90" width="560" height="150" as="geometry" />
        </mxCell>
        <mxCell id="bR5a_vynmV3dKwn0sRz3-3" value="" style="rounded=0;whiteSpace=wrap;html=1;" vertex="1" parent="bR5a_vynmV3dKwn0sRz3-1">
          <mxGeometry x="700" y="-560" width="120" height="800" as="geometry" />
        </mxCell>
        <mxCell id="bR5a_vynmV3dKwn0sRz3-4" value="" style="rounded=0;whiteSpace=wrap;html=1;" vertex="1" parent="bR5a_vynmV3dKwn0sRz3-1">
          <mxGeometry x="120" y="70" width="560" height="160" as="geometry" />
        </mxCell>
        <mxCell id="bR5a_vynmV3dKwn0sRz3-5" value="Amazon S3 Bucket&lt;br&gt;Raw" style="sketch=0;points=[[0,0,0],[0.25,0,0],[0.5,0,0],[0.75,0,0],[1,0,0],[0,1,0],[0.25,1,0],[0.5,1,0],[0.75,1,0],[1,1,0],[0,0.25,0],[0,0.5,0],[0,0.75,0],[1,0.25,0],[1,0.5,0],[1,0.75,0]];outlineConnect=0;fontColor=#232F3E;fillColor=#7AA116;strokeColor=#ffffff;dashed=0;verticalLabelPosition=bottom;verticalAlign=top;align=center;html=1;fontSize=12;fontStyle=0;aspect=fixed;shape=mxgraph.aws4.resourceIcon;resIcon=mxgraph.aws4.s3;" vertex="1" parent="bR5a_vynmV3dKwn0sRz3-1">
          <mxGeometry x="160" y="111" width="78" height="78" as="geometry" />
        </mxCell>
        <mxCell id="bR5a_vynmV3dKwn0sRz3-6" value="Amazon S3 Bucket&lt;br&gt;Stage" style="sketch=0;points=[[0,0,0],[0.25,0,0],[0.5,0,0],[0.75,0,0],[1,0,0],[0,1,0],[0.25,1,0],[0.5,1,0],[0.75,1,0],[1,1,0],[0,0.25,0],[0,0.5,0],[0,0.75,0],[1,0.25,0],[1,0.5,0],[1,0.75,0]];outlineConnect=0;fontColor=#232F3E;fillColor=#7AA116;strokeColor=#ffffff;dashed=0;verticalLabelPosition=bottom;verticalAlign=top;align=center;html=1;fontSize=12;fontStyle=0;aspect=fixed;shape=mxgraph.aws4.resourceIcon;resIcon=mxgraph.aws4.s3;" vertex="1" parent="bR5a_vynmV3dKwn0sRz3-1">
          <mxGeometry x="361" y="111" width="78" height="78" as="geometry" />
        </mxCell>
        <mxCell id="bR5a_vynmV3dKwn0sRz3-7" value="Amazon S3 Bucket&lt;br&gt;Analytics" style="sketch=0;points=[[0,0,0],[0.25,0,0],[0.5,0,0],[0.75,0,0],[1,0,0],[0,1,0],[0.25,1,0],[0.5,1,0],[0.75,1,0],[1,1,0],[0,0.25,0],[0,0.5,0],[0,0.75,0],[1,0.25,0],[1,0.5,0],[1,0.75,0]];outlineConnect=0;fontColor=#232F3E;fillColor=#7AA116;strokeColor=#ffffff;dashed=0;verticalLabelPosition=bottom;verticalAlign=top;align=center;html=1;fontSize=12;fontStyle=0;aspect=fixed;shape=mxgraph.aws4.resourceIcon;resIcon=mxgraph.aws4.s3;" vertex="1" parent="bR5a_vynmV3dKwn0sRz3-1">
          <mxGeometry x="560" y="111" width="78" height="78" as="geometry" />
        </mxCell>
        <mxCell id="bR5a_vynmV3dKwn0sRz3-8" value="" style="rounded=0;whiteSpace=wrap;html=1;" vertex="1" parent="bR5a_vynmV3dKwn0sRz3-1">
          <mxGeometry x="120" y="240" width="560" height="160" as="geometry" />
        </mxCell>
        <mxCell id="bR5a_vynmV3dKwn0sRz3-9" value="Amazon S3 Bucket&lt;br&gt;Access Logs" style="sketch=0;points=[[0,0,0],[0.25,0,0],[0.5,0,0],[0.75,0,0],[1,0,0],[0,1,0],[0.25,1,0],[0.5,1,0],[0.75,1,0],[1,1,0],[0,0.25,0],[0,0.5,0],[0,0.75,0],[1,0.25,0],[1,0.5,0],[1,0.75,0]];outlineConnect=0;fontColor=#232F3E;fillColor=#7AA116;strokeColor=#ffffff;dashed=0;verticalLabelPosition=bottom;verticalAlign=top;align=center;html=1;fontSize=12;fontStyle=0;aspect=fixed;shape=mxgraph.aws4.resourceIcon;resIcon=mxgraph.aws4.s3;" vertex="1" parent="bR5a_vynmV3dKwn0sRz3-1">
          <mxGeometry x="160" y="283" width="78" height="78" as="geometry" />
        </mxCell>
        <mxCell id="bR5a_vynmV3dKwn0sRz3-10" value="Amazon S3 Bucket&lt;br&gt;Artifacts" style="sketch=0;points=[[0,0,0],[0.25,0,0],[0.5,0,0],[0.75,0,0],[1,0,0],[0,1,0],[0.25,1,0],[0.5,1,0],[0.75,1,0],[1,1,0],[0,0.25,0],[0,0.5,0],[0,0.75,0],[1,0.25,0],[1,0.5,0],[1,0.75,0]];outlineConnect=0;fontColor=#232F3E;fillColor=#7AA116;strokeColor=#ffffff;dashed=0;verticalLabelPosition=bottom;verticalAlign=top;align=center;html=1;fontSize=12;fontStyle=0;aspect=fixed;shape=mxgraph.aws4.resourceIcon;resIcon=mxgraph.aws4.s3;" vertex="1" parent="bR5a_vynmV3dKwn0sRz3-1">
          <mxGeometry x="361" y="279" width="78" height="78" as="geometry" />
        </mxCell>
        <mxCell id="bR5a_vynmV3dKwn0sRz3-11" value="Amazon S3 Bucket&lt;br&gt;Athena" style="sketch=0;points=[[0,0,0],[0.25,0,0],[0.5,0,0],[0.75,0,0],[1,0,0],[0,1,0],[0.25,1,0],[0.5,1,0],[0.75,1,0],[1,1,0],[0,0.25,0],[0,0.5,0],[0,0.75,0],[1,0.25,0],[1,0.5,0],[1,0.75,0]];outlineConnect=0;fontColor=#232F3E;fillColor=#7AA116;strokeColor=#ffffff;dashed=0;verticalLabelPosition=bottom;verticalAlign=top;align=center;html=1;fontSize=12;fontStyle=0;aspect=fixed;shape=mxgraph.aws4.resourceIcon;resIcon=mxgraph.aws4.s3;" vertex="1" parent="bR5a_vynmV3dKwn0sRz3-1">
          <mxGeometry x="560" y="279" width="78" height="78" as="geometry" />
        </mxCell>
        <mxCell id="bR5a_vynmV3dKwn0sRz3-12" value="&lt;div align=&quot;right&quot;&gt;&lt;b&gt;Utility Layer&lt;/b&gt;&lt;/div&gt;" style="text;html=1;strokeColor=none;fillColor=none;align=right;verticalAlign=middle;whiteSpace=wrap;rounded=0;" vertex="1" parent="bR5a_vynmV3dKwn0sRz3-1">
          <mxGeometry x="568" y="251" width="100" height="20" as="geometry" />
        </mxCell>
        <mxCell id="bR5a_vynmV3dKwn0sRz3-13" value="&lt;div align=&quot;right&quot;&gt;&lt;b&gt;Data Lake Storage Layer&lt;/b&gt;&lt;/div&gt;" style="text;html=1;strokeColor=none;fillColor=none;align=right;verticalAlign=middle;whiteSpace=wrap;rounded=0;" vertex="1" parent="bR5a_vynmV3dKwn0sRz3-1">
          <mxGeometry x="526" y="82" width="142" height="20" as="geometry" />
        </mxCell>
        <mxCell id="bR5a_vynmV3dKwn0sRz3-14" value="" style="rounded=0;whiteSpace=wrap;html=1;" vertex="1" parent="bR5a_vynmV3dKwn0sRz3-1">
          <mxGeometry x="120" y="410" width="560" height="150" as="geometry" />
        </mxCell>
        <mxCell id="bR5a_vynmV3dKwn0sRz3-15" value="&lt;b&gt;Security Layer&lt;br&gt;&lt;/b&gt;" style="text;html=1;strokeColor=none;fillColor=none;align=center;verticalAlign=middle;whiteSpace=wrap;rounded=0;" vertex="1" parent="bR5a_vynmV3dKwn0sRz3-1">
          <mxGeometry x="568" y="418" width="100" height="30" as="geometry" />
        </mxCell>
        <mxCell id="bR5a_vynmV3dKwn0sRz3-16" value="AWS KMS Key" style="sketch=0;points=[[0,0,0],[0.25,0,0],[0.5,0,0],[0.75,0,0],[1,0,0],[0,1,0],[0.25,1,0],[0.5,1,0],[0.75,1,0],[1,1,0],[0,0.25,0],[0,0.5,0],[0,0.75,0],[1,0.25,0],[1,0.5,0],[1,0.75,0]];outlineConnect=0;fontColor=#232F3E;fillColor=#DD344C;strokeColor=#ffffff;dashed=0;verticalLabelPosition=bottom;verticalAlign=top;align=center;html=1;fontSize=12;fontStyle=0;aspect=fixed;shape=mxgraph.aws4.resourceIcon;resIcon=mxgraph.aws4.key_management_service;" vertex="1" parent="bR5a_vynmV3dKwn0sRz3-1">
          <mxGeometry x="170" y="452" width="78" height="78" as="geometry" />
        </mxCell>
        <mxCell id="bR5a_vynmV3dKwn0sRz3-17" value="AWS IAM Role" style="sketch=0;outlineConnect=0;fontColor=#232F3E;gradientColor=none;fillColor=#DD344C;strokeColor=none;dashed=0;verticalLabelPosition=bottom;verticalAlign=top;align=center;html=1;fontSize=12;fontStyle=0;aspect=fixed;pointerEvents=1;shape=mxgraph.aws4.role;" vertex="1" parent="bR5a_vynmV3dKwn0sRz3-1">
          <mxGeometry x="366" y="483" width="78" height="44" as="geometry" />
        </mxCell>
        <mxCell id="bR5a_vynmV3dKwn0sRz3-18" value="AWS IAM Permissions" style="sketch=0;outlineConnect=0;fontColor=#232F3E;gradientColor=none;fillColor=#DD344C;strokeColor=none;dashed=0;verticalLabelPosition=bottom;verticalAlign=top;align=center;html=1;fontSize=12;fontStyle=0;aspect=fixed;pointerEvents=1;shape=mxgraph.aws4.permissions;" vertex="1" parent="bR5a_vynmV3dKwn0sRz3-1">
          <mxGeometry x="573" y="452" width="62" height="78" as="geometry" />
        </mxCell>
        <mxCell id="bR5a_vynmV3dKwn0sRz3-19" value="" style="rounded=0;whiteSpace=wrap;html=1;" vertex="1" parent="bR5a_vynmV3dKwn0sRz3-1">
          <mxGeometry x="120" y="-410" width="560" height="310" as="geometry" />
        </mxCell>
        <mxCell id="bR5a_vynmV3dKwn0sRz3-20" value="AWS &lt;br&gt;Lake Formation" style="sketch=0;points=[[0,0,0],[0.25,0,0],[0.5,0,0],[0.75,0,0],[1,0,0],[0,1,0],[0.25,1,0],[0.5,1,0],[0.75,1,0],[1,1,0],[0,0.25,0],[0,0.5,0],[0,0.75,0],[1,0.25,0],[1,0.5,0],[1,0.75,0]];outlineConnect=0;fontColor=#232F3E;fillColor=#8C4FFF;strokeColor=#ffffff;dashed=0;verticalLabelPosition=bottom;verticalAlign=top;align=center;html=1;fontSize=12;fontStyle=0;aspect=fixed;shape=mxgraph.aws4.resourceIcon;resIcon=mxgraph.aws4.lake_formation;" vertex="1" parent="bR5a_vynmV3dKwn0sRz3-1">
          <mxGeometry x="721" y="-250" width="78" height="78" as="geometry" />
        </mxCell>
        <mxCell id="bR5a_vynmV3dKwn0sRz3-21" value="" style="rounded=0;whiteSpace=wrap;html=1;" vertex="1" parent="bR5a_vynmV3dKwn0sRz3-1">
          <mxGeometry x="390" y="-371" width="130" height="254" as="geometry" />
        </mxCell>
        <mxCell id="bR5a_vynmV3dKwn0sRz3-22" value="AWS Glue &lt;br&gt;Crawler" style="sketch=0;outlineConnect=0;fontColor=#232F3E;gradientColor=none;fillColor=#8C4FFF;strokeColor=none;dashed=0;verticalLabelPosition=bottom;verticalAlign=top;align=center;html=1;fontSize=12;fontStyle=0;aspect=fixed;pointerEvents=1;shape=mxgraph.aws4.glue_crawlers;" vertex="1" parent="bR5a_vynmV3dKwn0sRz3-1">
          <mxGeometry x="418" y="-232" width="78" height="78" as="geometry" />
        </mxCell>
        <mxCell id="bR5a_vynmV3dKwn0sRz3-23" value="AWS Glue &lt;br&gt;Catalog" style="sketch=0;outlineConnect=0;fontColor=#232F3E;gradientColor=none;fillColor=#8C4FFF;strokeColor=none;dashed=0;verticalLabelPosition=bottom;verticalAlign=top;align=center;html=1;fontSize=12;fontStyle=0;aspect=fixed;pointerEvents=1;shape=mxgraph.aws4.glue_data_catalog;" vertex="1" parent="bR5a_vynmV3dKwn0sRz3-1">
          <mxGeometry x="125" y="-400" width="72" height="78" as="geometry" />
        </mxCell>
        <mxCell id="bR5a_vynmV3dKwn0sRz3-24" value="&lt;div align=&quot;right&quot;&gt;&lt;b&gt;Data Catalog Layer&lt;/b&gt;&lt;/div&gt;" style="text;html=1;strokeColor=none;fillColor=none;align=right;verticalAlign=middle;whiteSpace=wrap;rounded=0;" vertex="1" parent="bR5a_vynmV3dKwn0sRz3-1">
          <mxGeometry x="529" y="-400" width="142" height="20" as="geometry" />
        </mxCell>
        <mxCell id="bR5a_vynmV3dKwn0sRz3-25" value="AWS Glue &lt;br&gt;Database - Stage" style="sketch=0;points=[[0,0,0],[0.25,0,0],[0.5,0,0],[0.75,0,0],[1,0,0],[0,1,0],[0.25,1,0],[0.5,1,0],[0.75,1,0],[1,1,0],[0,0.25,0],[0,0.5,0],[0,0.75,0],[1,0.25,0],[1,0.5,0],[1,0.75,0]];outlineConnect=0;fontColor=#232F3E;fillColor=#8C4FFF;strokeColor=#ffffff;dashed=0;verticalLabelPosition=bottom;verticalAlign=top;align=center;html=1;fontSize=12;fontStyle=0;aspect=fixed;shape=mxgraph.aws4.resourceIcon;resIcon=mxgraph.aws4.glue;" vertex="1" parent="bR5a_vynmV3dKwn0sRz3-1">
          <mxGeometry x="417" y="-351" width="78" height="78" as="geometry" />
        </mxCell>
        <mxCell id="bR5a_vynmV3dKwn0sRz3-26" value="&lt;div align=&quot;right&quot;&gt;&lt;b&gt;Data Governance&amp;nbsp;&lt;/b&gt;&lt;/div&gt;&lt;div align=&quot;center&quot;&gt;&lt;b&gt;Layer&lt;/b&gt;&lt;/div&gt;" style="text;html=1;strokeColor=none;fillColor=none;align=right;verticalAlign=middle;whiteSpace=wrap;rounded=0;" vertex="1" parent="bR5a_vynmV3dKwn0sRz3-1">
          <mxGeometry x="698" y="-541" width="120" height="20" as="geometry" />
        </mxCell>
        <mxCell id="bR5a_vynmV3dKwn0sRz3-27" value="" style="rounded=0;whiteSpace=wrap;html=1;" vertex="1" parent="bR5a_vynmV3dKwn0sRz3-1">
          <mxGeometry x="-150" y="-410" width="250" height="480" as="geometry" />
        </mxCell>
        <mxCell id="bR5a_vynmV3dKwn0sRz3-28" value="&lt;div align=&quot;right&quot;&gt;&lt;b&gt;Data Processing&amp;nbsp;&lt;/b&gt;&lt;/div&gt;&lt;div align=&quot;center&quot;&gt;&lt;b&gt;Layer&lt;/b&gt;&lt;/div&gt;" style="text;html=1;strokeColor=none;fillColor=none;align=right;verticalAlign=middle;whiteSpace=wrap;rounded=0;" vertex="1" parent="bR5a_vynmV3dKwn0sRz3-1">
          <mxGeometry x="548" y="-79" width="120" height="20" as="geometry" />
        </mxCell>
        <mxCell id="bR5a_vynmV3dKwn0sRz3-29" value="AWS Lambda&lt;br&gt;Light Transformation" style="sketch=0;points=[[0,0,0],[0.25,0,0],[0.5,0,0],[0.75,0,0],[1,0,0],[0,1,0],[0.25,1,0],[0.5,1,0],[0.75,1,0],[1,1,0],[0,0.25,0],[0,0.5,0],[0,0.75,0],[1,0.25,0],[1,0.5,0],[1,0.75,0]];outlineConnect=0;fontColor=#232F3E;gradientColor=#F78E04;gradientDirection=north;fillColor=#D05C17;strokeColor=#ffffff;dashed=0;verticalLabelPosition=bottom;verticalAlign=top;align=center;html=1;fontSize=12;fontStyle=0;aspect=fixed;shape=mxgraph.aws4.resourceIcon;resIcon=mxgraph.aws4.lambda;" vertex="1" parent="bR5a_vynmV3dKwn0sRz3-1">
          <mxGeometry x="170" y="-64" width="78" height="78" as="geometry" />
        </mxCell>
        <mxCell id="bR5a_vynmV3dKwn0sRz3-30" value="AWS Glue ETL&lt;br&gt;Heavy Transformation" style="sketch=0;points=[[0,0,0],[0.25,0,0],[0.5,0,0],[0.75,0,0],[1,0,0],[0,1,0],[0.25,1,0],[0.5,1,0],[0.75,1,0],[1,1,0],[0,0.25,0],[0,0.5,0],[0,0.75,0],[1,0.25,0],[1,0.5,0],[1,0.75,0]];outlineConnect=0;fontColor=#232F3E;gradientColor=#945DF2;gradientDirection=north;fillColor=#5A30B5;strokeColor=#ffffff;dashed=0;verticalLabelPosition=bottom;verticalAlign=top;align=center;html=1;fontSize=12;fontStyle=0;aspect=fixed;shape=mxgraph.aws4.resourceIcon;resIcon=mxgraph.aws4.glue;" vertex="1" parent="bR5a_vynmV3dKwn0sRz3-1">
          <mxGeometry x="368" y="-70" width="78" height="78" as="geometry" />
        </mxCell>
        <mxCell id="bR5a_vynmV3dKwn0sRz3-31" value="&lt;b&gt;Orchestration Layer&lt;br&gt;&lt;/b&gt;" style="text;html=1;strokeColor=none;fillColor=none;align=center;verticalAlign=middle;whiteSpace=wrap;rounded=0;" vertex="1" parent="bR5a_vynmV3dKwn0sRz3-1">
          <mxGeometry x="-130" y="-390" width="210" height="30" as="geometry" />
        </mxCell>
        <mxCell id="bR5a_vynmV3dKwn0sRz3-32" value="Amazon EventBrigde" style="sketch=0;points=[[0,0,0],[0.25,0,0],[0.5,0,0],[0.75,0,0],[1,0,0],[0,1,0],[0.25,1,0],[0.5,1,0],[0.75,1,0],[1,1,0],[0,0.25,0],[0,0.5,0],[0,0.75,0],[1,0.25,0],[1,0.5,0],[1,0.75,0]];outlineConnect=0;fontColor=#232F3E;gradientColor=#FF4F8B;gradientDirection=north;fillColor=#BC1356;strokeColor=#ffffff;dashed=0;verticalLabelPosition=bottom;verticalAlign=top;align=center;html=1;fontSize=12;fontStyle=0;aspect=fixed;shape=mxgraph.aws4.resourceIcon;resIcon=mxgraph.aws4.eventbridge;" vertex="1" parent="bR5a_vynmV3dKwn0sRz3-1">
          <mxGeometry x="-120" y="-124" width="78" height="78" as="geometry" />
        </mxCell>
        <mxCell id="bR5a_vynmV3dKwn0sRz3-33" value="" style="rounded=0;whiteSpace=wrap;html=1;" vertex="1" parent="bR5a_vynmV3dKwn0sRz3-1">
          <mxGeometry x="119" y="-555" width="561" height="134" as="geometry" />
        </mxCell>
        <mxCell id="bR5a_vynmV3dKwn0sRz3-34" value="&lt;b&gt;Consumption Layer&lt;br&gt;&lt;/b&gt;" style="text;html=1;strokeColor=none;fillColor=none;align=right;verticalAlign=middle;whiteSpace=wrap;rounded=0;" vertex="1" parent="bR5a_vynmV3dKwn0sRz3-1">
          <mxGeometry x="439" y="-545" width="235" height="20" as="geometry" />
        </mxCell>
        <mxCell id="bR5a_vynmV3dKwn0sRz3-35" value="Amazon Athena" style="sketch=0;points=[[0,0,0],[0.25,0,0],[0.5,0,0],[0.75,0,0],[1,0,0],[0,1,0],[0.25,1,0],[0.5,1,0],[0.75,1,0],[1,1,0],[0,0.25,0],[0,0.5,0],[0,0.75,0],[1,0.25,0],[1,0.5,0],[1,0.75,0]];outlineConnect=0;fontColor=#232F3E;fillColor=#8C4FFF;strokeColor=#ffffff;dashed=0;verticalLabelPosition=bottom;verticalAlign=top;align=center;html=1;fontSize=12;fontStyle=0;aspect=fixed;shape=mxgraph.aws4.resourceIcon;resIcon=mxgraph.aws4.athena;" vertex="1" parent="bR5a_vynmV3dKwn0sRz3-1">
          <mxGeometry x="361" y="-525" width="78" height="78" as="geometry" />
        </mxCell>
        <mxCell id="bR5a_vynmV3dKwn0sRz3-36" value="Amazon SQS" style="sketch=0;points=[[0,0,0],[0.25,0,0],[0.5,0,0],[0.75,0,0],[1,0,0],[0,1,0],[0.25,1,0],[0.5,1,0],[0.75,1,0],[1,1,0],[0,0.25,0],[0,0.5,0],[0,0.75,0],[1,0.25,0],[1,0.5,0],[1,0.75,0]];outlineConnect=0;fontColor=#232F3E;fillColor=#E7157B;strokeColor=#ffffff;dashed=0;verticalLabelPosition=bottom;verticalAlign=top;align=center;html=1;fontSize=12;fontStyle=0;aspect=fixed;shape=mxgraph.aws4.resourceIcon;resIcon=mxgraph.aws4.sqs;" vertex="1" parent="bR5a_vynmV3dKwn0sRz3-1">
          <mxGeometry x="-5" y="-124" width="78" height="78" as="geometry" />
        </mxCell>
        <mxCell id="bR5a_vynmV3dKwn0sRz3-37" value="Amazon DynamoDB" style="sketch=0;points=[[0,0,0],[0.25,0,0],[0.5,0,0],[0.75,0,0],[1,0,0],[0,1,0],[0.25,1,0],[0.5,1,0],[0.75,1,0],[1,1,0],[0,0.25,0],[0,0.5,0],[0,0.75,0],[1,0.25,0],[1,0.5,0],[1,0.75,0]];outlineConnect=0;fontColor=#232F3E;fillColor=#C925D1;strokeColor=#ffffff;dashed=0;verticalLabelPosition=bottom;verticalAlign=top;align=center;html=1;fontSize=12;fontStyle=0;aspect=fixed;shape=mxgraph.aws4.resourceIcon;resIcon=mxgraph.aws4.dynamodb;" vertex="1" parent="bR5a_vynmV3dKwn0sRz3-1">
          <mxGeometry x="-4" y="-272" width="78" height="78" as="geometry" />
        </mxCell>
        <mxCell id="bR5a_vynmV3dKwn0sRz3-38" value="AWS Step Functions" style="sketch=0;points=[[0,0,0],[0.25,0,0],[0.5,0,0],[0.75,0,0],[1,0,0],[0,1,0],[0.25,1,0],[0.5,1,0],[0.75,1,0],[1,1,0],[0,0.25,0],[0,0.5,0],[0,0.75,0],[1,0.25,0],[1,0.5,0],[1,0.75,0]];outlineConnect=0;fontColor=#232F3E;fillColor=#E7157B;strokeColor=#ffffff;dashed=0;verticalLabelPosition=bottom;verticalAlign=top;align=center;html=1;fontSize=12;fontStyle=0;aspect=fixed;shape=mxgraph.aws4.resourceIcon;resIcon=mxgraph.aws4.step_functions;" vertex="1" parent="bR5a_vynmV3dKwn0sRz3-1">
          <mxGeometry x="-120" y="-272" width="78" height="78" as="geometry" />
        </mxCell>
        <mxCell id="bR5a_vynmV3dKwn0sRz3-39" value="" style="rounded=0;whiteSpace=wrap;html=1;" vertex="1" parent="bR5a_vynmV3dKwn0sRz3-1">
          <mxGeometry x="540" y="-371" width="120" height="254" as="geometry" />
        </mxCell>
        <mxCell id="bR5a_vynmV3dKwn0sRz3-40" value="AWS Glue &lt;br&gt;Crawler" style="sketch=0;outlineConnect=0;fontColor=#232F3E;gradientColor=none;fillColor=#8C4FFF;strokeColor=none;dashed=0;verticalLabelPosition=bottom;verticalAlign=top;align=center;html=1;fontSize=12;fontStyle=0;aspect=fixed;pointerEvents=1;shape=mxgraph.aws4.glue_crawlers;" vertex="1" parent="bR5a_vynmV3dKwn0sRz3-1">
          <mxGeometry x="563" y="-232" width="78" height="78" as="geometry" />
        </mxCell>
        <mxCell id="bR5a_vynmV3dKwn0sRz3-41" value="AWS Glue &lt;br&gt;Database - Analytics" style="sketch=0;points=[[0,0,0],[0.25,0,0],[0.5,0,0],[0.75,0,0],[1,0,0],[0,1,0],[0.25,1,0],[0.5,1,0],[0.75,1,0],[1,1,0],[0,0.25,0],[0,0.5,0],[0,0.75,0],[1,0.25,0],[1,0.5,0],[1,0.75,0]];outlineConnect=0;fontColor=#232F3E;fillColor=#8C4FFF;strokeColor=#ffffff;dashed=0;verticalLabelPosition=bottom;verticalAlign=top;align=center;html=1;fontSize=12;fontStyle=0;aspect=fixed;shape=mxgraph.aws4.resourceIcon;resIcon=mxgraph.aws4.glue;" vertex="1" parent="bR5a_vynmV3dKwn0sRz3-1">
          <mxGeometry x="562" y="-351" width="78" height="78" as="geometry" />
        </mxCell>
        <mxCell id="bR5a_vynmV3dKwn0sRz3-42" value="" style="rounded=0;whiteSpace=wrap;html=1;" vertex="1" parent="bR5a_vynmV3dKwn0sRz3-1">
          <mxGeometry x="250" y="-371" width="120" height="254" as="geometry" />
        </mxCell>
        <mxCell id="bR5a_vynmV3dKwn0sRz3-43" value="AWS Glue &lt;br&gt;Crawler" style="sketch=0;outlineConnect=0;fontColor=#232F3E;gradientColor=none;fillColor=#8C4FFF;strokeColor=none;dashed=0;verticalLabelPosition=bottom;verticalAlign=top;align=center;html=1;fontSize=12;fontStyle=0;aspect=fixed;pointerEvents=1;shape=mxgraph.aws4.glue_crawlers;" vertex="1" parent="bR5a_vynmV3dKwn0sRz3-1">
          <mxGeometry x="274" y="-232" width="78" height="78" as="geometry" />
        </mxCell>
        <mxCell id="bR5a_vynmV3dKwn0sRz3-44" value="AWS Glue &lt;br&gt;Database - Raw" style="sketch=0;points=[[0,0,0],[0.25,0,0],[0.5,0,0],[0.75,0,0],[1,0,0],[0,1,0],[0.25,1,0],[0.5,1,0],[0.75,1,0],[1,1,0],[0,0.25,0],[0,0.5,0],[0,0.75,0],[1,0.25,0],[1,0.5,0],[1,0.75,0]];outlineConnect=0;fontColor=#232F3E;fillColor=#8C4FFF;strokeColor=#ffffff;dashed=0;verticalLabelPosition=bottom;verticalAlign=top;align=center;html=1;fontSize=12;fontStyle=0;aspect=fixed;shape=mxgraph.aws4.resourceIcon;resIcon=mxgraph.aws4.glue;" vertex="1" parent="bR5a_vynmV3dKwn0sRz3-1">
          <mxGeometry x="273" y="-351" width="78" height="78" as="geometry" />
        </mxCell>
        <mxCell id="bR5a_vynmV3dKwn0sRz3-45" value="AWS Account: Domain Data Lake" style="points=[[0,0],[0.25,0],[0.5,0],[0.75,0],[1,0],[1,0.25],[1,0.5],[1,0.75],[1,1],[0.75,1],[0.5,1],[0.25,1],[0,1],[0,0.75],[0,0.5],[0,0.25]];outlineConnect=0;gradientColor=none;html=1;whiteSpace=wrap;fontSize=12;fontStyle=0;container=1;pointerEvents=0;collapsible=0;recursiveResize=0;shape=mxgraph.aws4.group;grIcon=mxgraph.aws4.group_account;strokeColor=#CD2264;fillColor=none;verticalAlign=top;align=left;spacingLeft=30;fontColor=#CD2264;dashed=0;" vertex="1" parent="bR5a_vynmV3dKwn0sRz3-1">
          <mxGeometry x="-200" y="-600" width="1070" height="1210" as="geometry" />
        </mxCell>
      </root>
    </mxGraphModel>
  </diagram>
</mxfile>
